<?xml version="1.0" encoding="utf-8" ?>
<svg baseProfile="full" height="800" version="1.1" width="800" xmlns="http://www.w3.org/2000/svg" xmlns:ev="http://www.w3.org/2001/xml-events" xmlns:xlink="http://www.w3.org/1999/xlink"><defs /><circle cx="400" cy="400" fill="none" r="50" stroke="blue" stroke-width="1" /><circle cx="450.0" cy="400.0" fill="none" r="60.0" stroke="blue" stroke-width="1" /><circle cx="510.0" cy="400.0" fill="none" r="72.0" stroke="blue" stroke-width="1" /><circle cx="582.0" cy="400.0" fill="none" r="86.39999999999999" stroke="blue" stroke-width="1" /><circle cx="510.0" cy="472.0" fill="none" r="86.39999999999999" stroke="blue" stroke-width="1" /><circle cx="438.0" cy="400.0" fill="none" r="86.39999999999999" stroke="blue" stroke-width="1" /><circle cx="510.0" cy="328.0" fill="none" r="86.39999999999999" stroke="blue" stroke-width="1" /><circle cx="450.0" cy="460.0" fill="none" r="72.0" stroke="blue" stroke-width="1" /><circle cx="522.0" cy="460.0" fill="none" r="86.39999999999999" stroke="blue" stroke-width="1" /><circle cx="450.0" cy="532.0" fill="none" r="86.39999999999999" stroke="blue" stroke-width="1" /><circle cx="378.0" cy="460.0" fill="none" r="86.39999999999999" stroke="blue" stroke-width="1" /><circle cx="450.0" cy="388.0" fill="none" r="86.39999999999999" stroke="blue" stroke-width="1" /><circle cx="390.0" cy="400.0" fill="none" r="72.0" stroke="blue" stroke-width="1" /><circle cx="462.0" cy="400.0" fill="none" r="86.39999999999999" stroke="blue" stroke-width="1" /><circle cx="390.0" cy="472.0" fill="none" r="86.39999999999999" stroke="blue" stroke-width="1" /><circle cx="318.0" cy="400.0" fill="none" r="86.39999999999999" stroke="blue" stroke-width="1" /><circle cx="390.0" cy="328.0" fill="none" r="86.39999999999999" stroke="blue" stroke-width="1" /><circle cx="450.0" cy="340.0" fill="none" r="72.0" stroke="blue" stroke-width="1" /><circle cx="522.0" cy="340.0" fill="none" r="86.39999999999999" stroke="blue" stroke-width="1" /><circle cx="450.0" cy="412.0" fill="none" r="86.39999999999999" stroke="blue" stroke-width="1" /><circle cx="378.0" cy="340.0" fill="none" r="86.39999999999999" stroke="blue" stroke-width="1" /><circle cx="450.0" cy="268.0" fill="none" r="86.39999999999999" stroke="blue" stroke-width="1" /><circle cx="510.0" cy="400.0" fill="none" r="72.0" stroke="blue" stroke-width="1" /><circle cx="450.0" cy="460.0" fill="none" r="72.0" stroke="blue" stroke-width="1" /><circle cx="390.0" cy="400.0" fill="none" r="72.0" stroke="blue" stroke-width="1" /><circle cx="450.0" cy="340.0" fill="none" r="72.0" stroke="blue" stroke-width="1" /><circle cx="400.0" cy="450.0" fill="none" r="60.0" stroke="blue" stroke-width="1" /><circle cx="460.0" cy="450.0" fill="none" r="72.0" stroke="blue" stroke-width="1" /><circle cx="532.0" cy="450.0" fill="none" r="86.39999999999999" stroke="blue" stroke-width="1" /><circle cx="460.0" cy="522.0" fill="none" r="86.39999999999999" stroke="blue" stroke-width="1" /><circle cx="388.0" cy="450.0" fill="none" r="86.39999999999999" stroke="blue" stroke-width="1" /><circle cx="460.0" cy="378.0" fill="none" r="86.39999999999999" stroke="blue" stroke-width="1" /><circle cx="400.0" cy="510.0" fill="none" r="72.0" stroke="blue" stroke-width="1" /><circle cx="472.0" cy="510.0" fill="none" r="86.39999999999999" stroke="blue" stroke-width="1" /><circle cx="400.0" cy="582.0" fill="none" r="86.39999999999999" stroke="blue" stroke-width="1" /><circle cx="328.0" cy="510.0" fill="none" r="86.39999999999999" stroke="blue" stroke-width="1" /><circle cx="400.0" cy="438.0" fill="none" r="86.39999999999999" stroke="blue" stroke-width="1" /><circle cx="340.0" cy="450.0" fill="none" r="72.0" stroke="blue" stroke-width="1" /><circle cx="412.0" cy="450.0" fill="none" r="86.39999999999999" stroke="blue" stroke-width="1" /><circle cx="340.0" cy="522.0" fill="none" r="86.39999999999999" stroke="blue" stroke-width="1" /><circle cx="268.0" cy="450.0" fill="none" r="86.39999999999999" stroke="blue" stroke-width="1" /><circle cx="340.0" cy="378.0" fill="none" r="86.39999999999999" stroke="blue" stroke-width="1" /><circle cx="400.0" cy="390.0" fill="none" r="72.0" stroke="blue" stroke-width="1" /><circle cx="472.0" cy="390.0" fill="none" r="86.39999999999999" stroke="blue" stroke-width="1" /><circle cx="400.0" cy="462.0" fill="none" r="86.39999999999999" stroke="blue" stroke-width="1" /><circle cx="328.0" cy="390.0" fill="none" r="86.39999999999999" stroke="blue" stroke-width="1" /><circle cx="400.0" cy="318.0" fill="none" r="86.39999999999999" stroke="blue" stroke-width="1" /><circle cx="460.0" cy="450.0" fill="none" r="72.0" stroke="blue" stroke-width="1" /><circle cx="400.0" cy="510.0" fill="none" r="72.0" stroke="blue" stroke-width="1" /><circle cx="340.0" cy="450.0" fill="none" r="72.0" stroke="blue" stroke-width="1" /><circle cx="400.0" cy="390.0" fill="none" r="72.0" stroke="blue" stroke-width="1" /><circle cx="350.0" cy="400.0" fill="none" r="60.0" stroke="blue" stroke-width="1" /><circle cx="410.0" cy="400.0" fill="none" r="72.0" stroke="blue" stroke-width="1" /><circle cx="482.0" cy="400.0" fill="none" r="86.39999999999999" stroke="blue" stroke-width="1" /><circle cx="410.0" cy="472.0" fill="none" r="86.39999999999999" stroke="blue" stroke-width="1" /><circle cx="338.0" cy="400.0" fill="none" r="86.39999999999999" stroke="blue" stroke-width="1" /><circle cx="410.0" cy="328.0" fill="none" r="86.39999999999999" stroke="blue" stroke-width="1" /><circle cx="350.0" cy="460.0" fill="none" r="72.0" stroke="blue" stroke-width="1" /><circle cx="422.0" cy="460.0" fill="none" r="86.39999999999999" stroke="blue" stroke-width="1" /><circle cx="350.0" cy="532.0" fill="none" r="86.39999999999999" stroke="blue" stroke-width="1" /><circle cx="278.0" cy="460.0" fill="none" r="86.39999999999999" stroke="blue" stroke-width="1" /><circle cx="350.0" cy="388.0" fill="none" r="86.39999999999999" stroke="blue" stroke-width="1" /><circle cx="290.0" cy="400.0" fill="none" r="72.0" stroke="blue" stroke-width="1" /><circle cx="362.0" cy="400.0" fill="none" r="86.39999999999999" stroke="blue" stroke-width="1" /><circle cx="290.0" cy="472.0" fill="none" r="86.39999999999999" stroke="blue" stroke-width="1" /><circle cx="218.0" cy="400.0" fill="none" r="86.39999999999999" stroke="blue" stroke-width="1" /><circle cx="290.0" cy="328.0" fill="none" r="86.39999999999999" stroke="blue" stroke-width="1" /><circle cx="350.0" cy="340.0" fill="none" r="72.0" stroke="blue" stroke-width="1" /><circle cx="422.0" cy="340.0" fill="none" r="86.39999999999999" stroke="blue" stroke-width="1" /><circle cx="350.0" cy="412.0" fill="none" r="86.39999999999999" stroke="blue" stroke-width="1" /><circle cx="278.0" cy="340.0" fill="none" r="86.39999999999999" stroke="blue" stroke-width="1" /><circle cx="350.0" cy="268.0" fill="none" r="86.39999999999999" stroke="blue" stroke-width="1" /><circle cx="410.0" cy="400.0" fill="none" r="72.0" stroke="blue" stroke-width="1" /><circle cx="350.0" cy="460.0" fill="none" r="72.0" stroke="blue" stroke-width="1" /><circle cx="290.0" cy="400.0" fill="none" r="72.0" stroke="blue" stroke-width="1" /><circle cx="350.0" cy="340.0" fill="none" r="72.0" stroke="blue" stroke-width="1" /><circle cx="400.0" cy="350.0" fill="none" r="60.0" stroke="blue" stroke-width="1" /><circle cx="460.0" cy="350.0" fill="none" r="72.0" stroke="blue" stroke-width="1" /><circle cx="532.0" cy="350.0" fill="none" r="86.39999999999999" stroke="blue" stroke-width="1" /><circle cx="460.0" cy="422.0" fill="none" r="86.39999999999999" stroke="blue" stroke-width="1" /><circle cx="388.0" cy="350.0" fill="none" r="86.39999999999999" stroke="blue" stroke-width="1" /><circle cx="460.0" cy="278.0" fill="none" r="86.39999999999999" stroke="blue" stroke-width="1" /><circle cx="400.0" cy="410.0" fill="none" r="72.0" stroke="blue" stroke-width="1" /><circle cx="472.0" cy="410.0" fill="none" r="86.39999999999999" stroke="blue" stroke-width="1" /><circle cx="400.0" cy="482.0" fill="none" r="86.39999999999999" stroke="blue" stroke-width="1" /><circle cx="328.0" cy="410.0" fill="none" r="86.39999999999999" stroke="blue" stroke-width="1" /><circle cx="400.0" cy="338.0" fill="none" r="86.39999999999999" stroke="blue" stroke-width="1" /><circle cx="340.0" cy="350.0" fill="none" r="72.0" stroke="blue" stroke-width="1" /><circle cx="412.0" cy="350.0" fill="none" r="86.39999999999999" stroke="blue" stroke-width="1" /><circle cx="340.0" cy="422.0" fill="none" r="86.39999999999999" stroke="blue" stroke-width="1" /><circle cx="268.0" cy="350.0" fill="none" r="86.39999999999999" stroke="blue" stroke-width="1" /><circle cx="340.0" cy="278.0" fill="none" r="86.39999999999999" stroke="blue" stroke-width="1" /><circle cx="400.0" cy="290.0" fill="none" r="72.0" stroke="blue" stroke-width="1" /><circle cx="472.0" cy="290.0" fill="none" r="86.39999999999999" stroke="blue" stroke-width="1" /><circle cx="400.0" cy="362.0" fill="none" r="86.39999999999999" stroke="blue" stroke-width="1" /><circle cx="328.0" cy="290.0" fill="none" r="86.39999999999999" stroke="blue" stroke-width="1" /><circle cx="400.0" cy="218.0" fill="none" r="86.39999999999999" stroke="blue" stroke-width="1" /><circle cx="460.0" cy="350.0" fill="none" r="72.0" stroke="blue" stroke-width="1" /><circle cx="400.0" cy="410.0" fill="none" r="72.0" stroke="blue" stroke-width="1" /><circle cx="340.0" cy="350.0" fill="none" r="72.0" stroke="blue" stroke-width="1" /><circle cx="400.0" cy="290.0" fill="none" r="72.0" stroke="blue" stroke-width="1" /><circle cx="450.0" cy="400.0" fill="none" r="60.0" stroke="blue" stroke-width="1" /><circle cx="510.0" cy="400.0" fill="none" r="72.0" stroke="blue" stroke-width="1" /><circle cx="450.0" cy="460.0" fill="none" r="72.0" stroke="blue" stroke-width="1" /><circle cx="390.0" cy="400.0" fill="none" r="72.0" stroke="blue" stroke-width="1" /><circle cx="450.0" cy="340.0" fill="none" r="72.0" stroke="blue" stroke-width="1" /><circle cx="400.0" cy="450.0" fill="none" r="60.0" stroke="blue" stroke-width="1" /><circle cx="460.0" cy="450.0" fill="none" r="72.0" stroke="blue" stroke-width="1" /><circle cx="400.0" cy="510.0" fill="none" r="72.0" stroke="blue" stroke-width="1" /><circle cx="340.0" cy="450.0" fill="none" r="72.0" stroke="blue" stroke-width="1" /><circle cx="400.0" cy="390.0" fill="none" r="72.0" stroke="blue" stroke-width="1" /><circle cx="350.0" cy="400.0" fill="none" r="60.0" stroke="blue" stroke-width="1" /><circle cx="410.0" cy="400.0" fill="none" r="72.0" stroke="blue" stroke-width="1" /><circle cx="350.0" cy="460.0" fill="none" r="72.0" stroke="blue" stroke-width="1" /><circle cx="290.0" cy="400.0" fill="none" r="72.0" stroke="blue" stroke-width="1" /><circle cx="350.0" cy="340.0" fill="none" r="72.0" stroke="blue" stroke-width="1" /><circle cx="400.0" cy="350.0" fill="none" r="60.0" stroke="blue" stroke-width="1" /><circle cx="460.0" cy="350.0" fill="none" r="72.0" stroke="blue" stroke-width="1" /><circle cx="400.0" cy="410.0" fill="none" r="72.0" stroke="blue" stroke-width="1" /><circle cx="340.0" cy="350.0" fill="none" r="72.0" stroke="blue" stroke-width="1" /><circle cx="400.0" cy="290.0" fill="none" r="72.0" stroke="blue" stroke-width="1" /><circle cx="450.0" cy="400.0" fill="none" r="60.0" stroke="blue" stroke-width="1" /><circle cx="400.0" cy="450.0" fill="none" r="60.0" stroke="blue" stroke-width="1" /><circle cx="350.0" cy="400.0" fill="none" r="60.0" stroke="blue" stroke-width="1" /><circle cx="400.0" cy="350.0" fill="none" r="60.0" stroke="blue" stroke-width="1" /></svg>