<?xml version="1.0" encoding="utf-8" ?>
<svg baseProfile="full" height="1000" version="1.1" width="1000" xmlns="http://www.w3.org/2000/svg" xmlns:ev="http://www.w3.org/2001/xml-events" xmlns:xlink="http://www.w3.org/1999/xlink"><defs /><circle cx="500" cy="500" fill="none" r="100" stroke="blue" stroke-width="1" /><circle cx="600.0" cy="500.0" fill="none" r="120.0" stroke="blue" stroke-width="1" /><circle cx="596.5925826289068" cy="525.8819045102521" fill="none" r="120.0" stroke="blue" stroke-width="1" /><circle cx="586.6025403784439" cy="550.0" fill="none" r="120.0" stroke="blue" stroke-width="1" /><circle cx="570.7106781186548" cy="570.7106781186548" fill="none" r="120.0" stroke="blue" stroke-width="1" /><circle cx="550.0" cy="586.6025403784439" fill="none" r="120.0" stroke="blue" stroke-width="1" /><circle cx="525.8819045102521" cy="596.5925826289068" fill="none" r="120.0" stroke="blue" stroke-width="1" /><circle cx="500.0" cy="600.0" fill="none" r="120.0" stroke="blue" stroke-width="1" /><circle cx="474.11809548974793" cy="596.5925826289068" fill="none" r="120.0" stroke="blue" stroke-width="1" /><circle cx="450.0" cy="586.6025403784439" fill="none" r="120.0" stroke="blue" stroke-width="1" /><circle cx="429.28932188134524" cy="570.7106781186548" fill="none" r="120.0" stroke="blue" stroke-width="1" /><circle cx="413.3974596215561" cy="550.0" fill="none" r="120.0" stroke="blue" stroke-width="1" /><circle cx="403.4074173710932" cy="525.8819045102521" fill="none" r="120.0" stroke="blue" stroke-width="1" /><circle cx="400.0" cy="500.0" fill="none" r="120.0" stroke="blue" stroke-width="1" /><circle cx="403.4074173710932" cy="474.118095489748" fill="none" r="120.0" stroke="blue" stroke-width="1" /><circle cx="413.39745962155615" cy="450.0" fill="none" r="120.0" stroke="blue" stroke-width="1" /><circle cx="429.28932188134524" cy="429.28932188134524" fill="none" r="120.0" stroke="blue" stroke-width="1" /><circle cx="449.99999999999994" cy="413.39745962155615" fill="none" r="120.0" stroke="blue" stroke-width="1" /><circle cx="474.11809548974793" cy="403.4074173710932" fill="none" r="120.0" stroke="blue" stroke-width="1" /><circle cx="500.0" cy="400.0" fill="none" r="120.0" stroke="blue" stroke-width="1" /><circle cx="525.8819045102521" cy="403.4074173710932" fill="none" r="120.0" stroke="blue" stroke-width="1" /><circle cx="550.0" cy="413.39745962155615" fill="none" r="120.0" stroke="blue" stroke-width="1" /><circle cx="570.7106781186548" cy="429.28932188134524" fill="none" r="120.0" stroke="blue" stroke-width="1" /><circle cx="586.6025403784438" cy="449.99999999999994" fill="none" r="120.0" stroke="blue" stroke-width="1" /><circle cx="596.5925826289068" cy="474.11809548974793" fill="none" r="120.0" stroke="blue" stroke-width="1" /></svg>