<?xml version="1.0" encoding="utf-8" ?>
<svg baseProfile="full" height="1000" version="1.1" width="1000" xmlns="http://www.w3.org/2000/svg" xmlns:ev="http://www.w3.org/2001/xml-events" xmlns:xlink="http://www.w3.org/1999/xlink"><defs /><circle cx="500" cy="500" fill="none" r="250" stroke="blue" stroke-width="1" /><circle cx="750.0" cy="500.0" fill="none" r="125.0" stroke="blue" stroke-width="1" /><circle cx="741.4814565722671" cy="564.7047612756302" fill="none" r="125.0" stroke="blue" stroke-width="1" /><circle cx="716.5063509461097" cy="625.0" fill="none" r="125.0" stroke="blue" stroke-width="1" /><circle cx="676.776695296637" cy="676.776695296637" fill="none" r="125.0" stroke="blue" stroke-width="1" /><circle cx="625.0" cy="716.5063509461097" fill="none" r="125.0" stroke="blue" stroke-width="1" /><circle cx="564.7047612756302" cy="741.4814565722671" fill="none" r="125.0" stroke="blue" stroke-width="1" /><circle cx="500.0" cy="750.0" fill="none" r="125.0" stroke="blue" stroke-width="1" /><circle cx="435.29523872436977" cy="741.4814565722671" fill="none" r="125.0" stroke="blue" stroke-width="1" /><circle cx="375.00000000000006" cy="716.5063509461097" fill="none" r="125.0" stroke="blue" stroke-width="1" /><circle cx="323.22330470336317" cy="676.776695296637" fill="none" r="125.0" stroke="blue" stroke-width="1" /><circle cx="283.4936490538903" cy="625.0" fill="none" r="125.0" stroke="blue" stroke-width="1" /><circle cx="258.51854342773294" cy="564.7047612756303" fill="none" r="125.0" stroke="blue" stroke-width="1" /><circle cx="250.0" cy="500.00000000000006" fill="none" r="125.0" stroke="blue" stroke-width="1" /><circle cx="258.5185434277329" cy="435.29523872436994" fill="none" r="125.0" stroke="blue" stroke-width="1" /><circle cx="283.49364905389035" cy="375.0" fill="none" r="125.0" stroke="blue" stroke-width="1" /><circle cx="323.22330470336306" cy="323.22330470336317" fill="none" r="125.0" stroke="blue" stroke-width="1" /><circle cx="374.9999999999999" cy="283.4936490538904" fill="none" r="125.0" stroke="blue" stroke-width="1" /><circle cx="435.2952387243698" cy="258.5185434277329" fill="none" r="125.0" stroke="blue" stroke-width="1" /><circle cx="499.99999999999994" cy="250.0" fill="none" r="125.0" stroke="blue" stroke-width="1" /><circle cx="564.7047612756303" cy="258.51854342773294" fill="none" r="125.0" stroke="blue" stroke-width="1" /><circle cx="625.0" cy="283.49364905389035" fill="none" r="125.0" stroke="blue" stroke-width="1" /><circle cx="676.7766952966368" cy="323.22330470336306" fill="none" r="125.0" stroke="blue" stroke-width="1" /><circle cx="716.5063509461096" cy="374.9999999999999" fill="none" r="125.0" stroke="blue" stroke-width="1" /><circle cx="741.4814565722671" cy="435.2952387243698" fill="none" r="125.0" stroke="blue" stroke-width="1" /></svg>